<svg xmlns="http://www.w3.org/2000/svg" viewBox="0 0 600 600" width="600" height="600" role="img" aria-label="Cosmic Luminance">
  <title>Cosmic Luminance</title>
  <!-- Mask source: the ALPHA channel is the glyph. The artwork below is untouched
       and still paints its authored #141416 body over WHITE holes; the filter
       rebuilds alpha from luminance so the holes are real transparency and a CSS
       mask (see game/relicVisuals.js glyphMaskStyle) can paint it any colour.
       Re-exporting this file WITHOUT the wrapper makes every hole opaque —
       test/vocabDrill-gameFx.test.js fails loudly if that happens.
       Re-apply with: npm run normalize:relic-glyphs -->
  <defs>
    <filter id="wd-glyph-alpha" filterUnits="userSpaceOnUse" x="0" y="0" width="600" height="600" color-interpolation-filters="sRGB">
      <feColorMatrix type="matrix" values="0 0 0 0 0.07843  0 0 0 0 0.07843  0 0 0 0 0.08627  -0.36283 -0.36283 -0.36283 0 1.08849"/>
    </filter>
  </defs>
  <g filter="url(#wd-glyph-alpha)">
    <rect x="0" y="0" width="600" height="600" fill="#fff"/>
    <g fill="#141416" fill-rule="nonzero">
      <path d="M276.3 242.7 Q283.4 195.5 300.0 48.0 Q316.6 195.5 323.7 242.7 Q325.7 264.7 373.5 226.5 Q335.3 274.3 357.3 276.3 Q404.5 283.4 552.0 300.0 Q404.5 316.6 357.3 323.7 Q335.3 325.7 373.5 373.5 Q325.7 335.3 323.7 357.3 Q316.6 404.5 300.0 552.0 Q283.4 404.5 276.3 357.3 Q274.3 335.3 226.5 373.5 Q264.7 325.7 242.7 323.7 Q195.5 316.6 48.0 300.0 Q195.5 283.4 242.7 276.3 Q264.7 274.3 226.5 226.5 Q274.3 264.7 276.3 242.7 Z"></path>
      <path d="M111.0 167.5 Q114.2 196.3 123.0 199.5 Q114.2 202.7 111.0 231.5 Q107.8 202.7 99.0 199.5 Q107.8 196.3 111.0 167.5 Z"></path>
      <path d="M489.0 167.5 Q492.2 196.3 501.0 199.5 Q492.2 202.7 489.0 231.5 Q485.8 202.7 477.0 199.5 Q485.8 196.3 489.0 167.5 Z"></path>
      <path d="M346.6 499.1 Q348.8 516.9 354.6 519.1 Q348.8 521.3 346.6 539.1 Q344.4 521.3 338.6 519.1 Q344.4 516.9 346.6 499.1 Z"></path>
      <path d="M452.5 142.1 L454.1 143.9 L455.5 145.8 L456.7 147.8 L457.7 150.0 L458.4 152.3 L459.0 154.6 L459.3 157.0 L459.5 159.5 L459.5 162.0 L459.4 164.6 L459.1 167.3 L458.7 170.0 L458.1 172.8 L457.5 175.7 L456.6 178.6 L455.7 181.6 L454.6 184.7 L453.4 187.8 L452.1 191.1 L450.7 194.4 L449.1 197.7 L447.4 201.2 L445.6 204.7 L443.7 208.3 L441.7 211.9 L439.6 215.6 L437.3 219.4 L435.0 223.2 L432.5 227.1 L430.0 231.1 L427.3 235.1 L424.6 239.1 L421.7 243.2 L418.8 247.3 L415.8 251.5 L412.6 255.7 L409.4 260.0 L406.1 264.3 L402.8 268.6 L399.3 272.9 L395.8 277.3 L392.2 281.7 L388.5 286.1 L384.8 290.5 L381.0 294.9 L377.2 299.3 L373.3 303.8 L369.3 308.2 L365.3 312.7 L361.3 317.1 L357.2 321.5 L353.0 325.9 L348.9 330.3 L344.7 334.7 L340.5 339.1 L336.2 343.4 L332.0 347.8 L327.8 352.1 L323.5 356.4 L319.2 360.6 L314.9 364.8 L310.6 369.0 L306.3 373.1 L302.0 377.2 L297.7 381.2 L293.4 385.1 L289.2 389.0 L284.9 392.8 L280.6 396.5 L276.4 400.2 L272.2 403.8 L268.0 407.3 L263.8 410.8 L259.7 414.1 L255.6 417.4 L251.5 420.6 L247.5 423.6 L243.5 426.6 L239.5 429.5 L235.6 432.3 L231.8 435.0 L228.0 437.6 L224.2 440.1 L220.5 442.4 L216.9 444.7 L213.3 446.8 L209.8 448.9 L206.4 450.8 L203.0 452.6 L199.7 454.2 L196.4 455.8 L193.3 457.2 L190.1 458.5 L187.1 459.7 L184.1 460.8 L181.2 461.7 L178.4 462.5 L175.6 463.1 L172.9 463.7 L170.3 464.0 L167.7 464.2 L165.2 464.3 L162.7 464.2 L160.3 463.9 L157.9 463.5 L155.6 462.8 L153.4 461.9 L151.3 460.8 L149.3 459.4 L147.5 457.9 L145.9 456.1 L144.5 454.2 L143.3 452.2 L142.3 450.0 L141.6 447.7 L141.0 445.4 L140.7 443.0 L140.5 440.5 L140.5 438.0 L140.6 435.4 L140.9 432.7 L141.3 430.0 L141.9 427.2 L142.5 424.3 L143.4 421.4 L144.3 418.4 L145.4 415.3 L146.6 412.2 L147.9 408.9 L149.3 405.6 L150.9 402.3 L152.6 398.8 L154.4 395.3 L156.3 391.7 L158.3 388.1 L160.4 384.4 L162.7 380.6 L165.0 376.8 L167.5 372.9 L170.0 368.9 L172.7 364.9 L175.4 360.9 L178.3 356.8 L181.2 352.7 L184.2 348.5 L187.4 344.3 L190.6 340.0 L193.9 335.7 L197.2 331.4 L200.7 327.1 L204.2 322.7 L207.8 318.3 L211.5 313.9 L215.2 309.5 L219.0 305.1 L222.8 300.7 L226.7 296.2 L230.7 291.8 L234.7 287.3 L238.7 282.9 L242.8 278.5 L247.0 274.1 L251.1 269.7 L255.3 265.3 L259.5 260.9 L263.8 256.6 L268.0 252.2 L272.2 247.9 L276.5 243.6 L280.8 239.4 L285.1 235.2 L289.4 231.0 L293.7 226.9 L298.0 222.8 L302.3 218.8 L306.6 214.9 L310.8 211.0 L315.1 207.2 L319.4 203.5 L323.6 199.8 L327.8 196.2 L332.0 192.7 L336.2 189.2 L340.3 185.9 L344.4 182.6 L348.5 179.4 L352.5 176.4 L356.5 173.4 L360.5 170.5 L364.4 167.7 L368.2 165.0 L372.0 162.4 L375.8 159.9 L379.5 157.6 L383.1 155.3 L386.7 153.2 L390.2 151.1 L393.6 149.2 L397.0 147.4 L400.3 145.8 L403.6 144.2 L406.7 142.8 L409.9 141.5 L412.9 140.3 L415.9 139.2 L418.8 138.3 L421.6 137.5 L424.4 136.9 L427.1 136.3 L429.7 136.0 L432.3 135.8 L434.8 135.7 L437.3 135.8 L439.7 136.1 L442.1 136.5 L444.4 137.2 L446.6 138.1 L448.7 139.2 L450.7 140.6 Z M441.5 152.4 L440.9 152.0 L440.2 151.6 L439.4 151.2 L438.4 150.9 L437.2 150.6 L435.9 150.4 L434.4 150.2 L432.8 150.2 L431.0 150.2 L429.0 150.4 L426.9 150.7 L424.7 151.0 L422.3 151.5 L419.8 152.2 L417.1 152.9 L414.4 153.8 L411.5 154.8 L408.5 155.9 L405.5 157.1 L402.3 158.5 L399.0 159.9 L395.6 161.5 L392.2 163.2 L388.6 165.1 L385.0 167.0 L381.3 169.1 L377.5 171.2 L373.7 173.5 L369.8 175.9 L365.8 178.4 L361.8 181.0 L357.7 183.7 L353.6 186.5 L349.5 189.4 L345.3 192.4 L341.0 195.5 L336.7 198.6 L332.4 201.9 L328.1 205.3 L323.7 208.7 L319.4 212.2 L315.0 215.8 L310.6 219.5 L306.2 223.2 L301.8 227.1 L297.4 230.9 L293.0 234.9 L288.6 238.9 L284.2 243.0 L279.9 247.1 L275.6 251.2 L271.3 255.5 L267.0 259.7 L262.8 264.1 L258.6 268.4 L254.5 272.8 L250.4 277.3 L246.4 281.7 L242.4 286.2 L238.5 290.7 L234.7 295.3 L230.9 299.8 L227.2 304.3 L223.5 308.9 L219.9 313.4 L216.4 317.9 L213.0 322.4 L209.6 326.9 L206.3 331.4 L203.1 335.8 L200.0 340.2 L197.0 344.6 L194.0 349.0 L191.2 353.3 L188.4 357.6 L185.8 361.8 L183.2 365.9 L180.7 370.0 L178.4 374.1 L176.1 378.1 L174.0 382.0 L172.0 385.8 L170.0 389.6 L168.2 393.3 L166.5 396.9 L164.9 400.4 L163.5 403.8 L162.1 407.2 L160.9 410.4 L159.7 413.5 L158.7 416.5 L157.9 419.4 L157.1 422.2 L156.4 424.9 L155.9 427.4 L155.5 429.8 L155.2 432.1 L155.0 434.2 L154.9 436.1 L154.9 437.9 L155.0 439.6 L155.2 441.1 L155.5 442.4 L155.8 443.5 L156.2 444.5 L156.6 445.3 L157.0 446.0 L157.5 446.6 L157.9 447.1 L158.5 447.6 L159.1 448.0 L159.8 448.4 L160.6 448.8 L161.6 449.1 L162.8 449.4 L164.1 449.6 L165.6 449.8 L167.2 449.8 L169.0 449.8 L171.0 449.6 L173.1 449.3 L175.3 449.0 L177.7 448.5 L180.2 447.8 L182.9 447.1 L185.6 446.2 L188.5 445.2 L191.5 444.1 L194.5 442.9 L197.7 441.5 L201.0 440.1 L204.4 438.5 L207.8 436.8 L211.4 434.9 L215.0 433.0 L218.7 430.9 L222.5 428.8 L226.3 426.5 L230.2 424.1 L234.2 421.6 L238.2 419.0 L242.3 416.3 L246.4 413.5 L250.5 410.6 L254.7 407.6 L259.0 404.5 L263.3 401.4 L267.6 398.1 L271.9 394.7 L276.3 391.3 L280.6 387.8 L285.0 384.2 L289.4 380.5 L293.8 376.8 L298.2 372.9 L302.6 369.1 L307.0 365.1 L311.4 361.1 L315.8 357.0 L320.1 352.9 L324.4 348.8 L328.7 344.5 L333.0 340.3 L337.2 335.9 L341.4 331.6 L345.5 327.2 L349.6 322.7 L353.6 318.3 L357.6 313.8 L361.5 309.3 L365.3 304.7 L369.1 300.2 L372.8 295.7 L376.5 291.1 L380.1 286.6 L383.6 282.1 L387.0 277.6 L390.4 273.1 L393.7 268.6 L396.9 264.2 L400.0 259.8 L403.0 255.4 L406.0 251.0 L408.8 246.7 L411.6 242.4 L414.2 238.2 L416.8 234.1 L419.3 230.0 L421.6 225.9 L423.9 221.9 L426.0 218.0 L428.0 214.2 L430.0 210.4 L431.8 206.7 L433.5 203.1 L435.1 199.6 L436.5 196.2 L437.9 192.8 L439.1 189.6 L440.3 186.5 L441.3 183.5 L442.1 180.6 L442.9 177.8 L443.6 175.1 L444.1 172.6 L444.5 170.2 L444.8 167.9 L445.0 165.8 L445.1 163.9 L445.1 162.1 L445.0 160.4 L444.8 158.9 L444.5 157.6 L444.2 156.5 L443.8 155.5 L443.4 154.7 L443.0 154.0 L442.5 153.4 L442.1 152.9 Z"></path>
      <path d="M449.4 386.3 L448.3 387.9 L447.1 389.3 L445.7 390.7 L444.2 391.9 L442.6 392.9 L440.8 393.8 L439.0 394.5 L437.2 395.1 L435.2 395.6 L433.2 396.0 L431.1 396.3 L428.9 396.5 L426.7 396.6 L424.3 396.6 L421.9 396.5 L419.5 396.3 L416.9 396.1 L414.3 395.7 L411.6 395.3 L408.8 394.8 L405.9 394.3 L403.0 393.6 L400.0 392.9 L396.9 392.1 L393.7 391.3 L390.5 390.4 L387.2 389.3 L383.9 388.3 L380.5 387.1 L377.0 385.9 L373.4 384.7 L369.8 383.3 L366.2 381.9 L362.5 380.4 L358.8 378.9 L355.0 377.3 L351.1 375.7 L347.2 374.0 L343.3 372.2 L339.4 370.4 L335.4 368.6 L331.4 366.6 L327.4 364.7 L323.3 362.7 L319.2 360.6 L315.1 358.5 L311.0 356.4 L306.9 354.2 L302.8 352.0 L298.6 349.8 L294.5 347.5 L290.4 345.2 L286.2 342.8 L282.1 340.5 L278.0 338.1 L273.9 335.7 L269.8 333.3 L265.7 330.9 L261.6 328.5 L257.6 326.1 L253.6 323.6 L249.6 321.1 L245.7 318.6 L241.8 316.2 L237.9 313.7 L234.1 311.2 L230.3 308.6 L226.6 306.1 L222.9 303.6 L219.3 301.1 L215.8 298.6 L212.3 296.1 L208.9 293.6 L205.6 291.1 L202.3 288.6 L199.1 286.1 L196.0 283.6 L192.9 281.2 L190.0 278.7 L187.1 276.3 L184.3 273.9 L181.6 271.5 L179.0 269.1 L176.5 266.8 L174.1 264.5 L171.8 262.2 L169.5 259.9 L167.4 257.6 L165.4 255.4 L163.5 253.2 L161.7 251.0 L160.0 248.9 L158.4 246.8 L156.9 244.7 L155.5 242.6 L154.2 240.6 L153.1 238.6 L152.0 236.6 L151.1 234.6 L150.3 232.7 L149.6 230.7 L149.1 228.8 L148.6 226.8 L148.4 224.9 L148.3 223.0 L148.4 221.1 L148.6 219.2 L149.1 217.3 L149.7 215.5 L150.6 213.8 L151.7 212.1 L152.9 210.7 L154.3 209.3 L155.8 208.1 L157.4 207.1 L159.2 206.2 L161.0 205.5 L162.8 204.9 L164.8 204.4 L166.8 204.0 L168.9 203.7 L171.1 203.5 L173.3 203.4 L175.7 203.4 L178.1 203.5 L180.5 203.7 L183.1 203.9 L185.7 204.3 L188.4 204.7 L191.2 205.2 L194.1 205.7 L197.0 206.4 L200.0 207.1 L203.1 207.9 L206.3 208.7 L209.5 209.6 L212.8 210.7 L216.1 211.7 L219.5 212.9 L223.0 214.1 L226.6 215.3 L230.2 216.7 L233.8 218.1 L237.5 219.6 L241.2 221.1 L245.0 222.7 L248.9 224.3 L252.8 226.0 L256.7 227.8 L260.6 229.6 L264.6 231.4 L268.6 233.4 L272.6 235.3 L276.7 237.3 L280.8 239.4 L284.9 241.5 L289.0 243.6 L293.1 245.8 L297.2 248.0 L301.4 250.2 L305.5 252.5 L309.6 254.8 L313.8 257.2 L317.9 259.5 L322.0 261.9 L326.1 264.3 L330.2 266.7 L334.3 269.1 L338.4 271.5 L342.4 273.9 L346.4 276.4 L350.4 278.9 L354.3 281.4 L358.2 283.8 L362.1 286.3 L365.9 288.8 L369.7 291.4 L373.4 293.9 L377.1 296.4 L380.7 298.9 L384.2 301.4 L387.7 303.9 L391.1 306.4 L394.4 308.9 L397.7 311.4 L400.9 313.9 L404.0 316.4 L407.1 318.8 L410.0 321.3 L412.9 323.7 L415.7 326.1 L418.4 328.5 L421.0 330.9 L423.5 333.2 L425.9 335.5 L428.2 337.8 L430.5 340.1 L432.6 342.4 L434.6 344.6 L436.5 346.8 L438.3 349.0 L440.0 351.1 L441.6 353.2 L443.1 355.3 L444.5 357.4 L445.8 359.4 L446.9 361.4 L448.0 363.4 L448.9 365.4 L449.7 367.3 L450.4 369.3 L450.9 371.2 L451.4 373.2 L451.6 375.1 L451.7 377.0 L451.6 378.9 L451.4 380.8 L450.9 382.7 L450.3 384.5 Z M438.3 379.3 L438.5 378.9 L438.7 378.3 L438.8 377.7 L438.9 376.9 L438.9 376.1 L438.8 375.1 L438.6 374.0 L438.4 372.8 L438.0 371.4 L437.5 370.0 L436.9 368.5 L436.2 366.9 L435.4 365.2 L434.5 363.4 L433.4 361.6 L432.2 359.7 L431.0 357.7 L429.6 355.6 L428.1 353.5 L426.4 351.4 L424.7 349.2 L422.9 346.9 L420.9 344.6 L418.9 342.3 L416.7 339.9 L414.5 337.5 L412.1 335.0 L409.7 332.5 L407.1 330.0 L404.5 327.5 L401.8 324.9 L398.9 322.3 L396.0 319.7 L393.1 317.1 L390.0 314.5 L386.8 311.9 L383.6 309.2 L380.3 306.5 L377.0 303.9 L373.5 301.2 L370.0 298.6 L366.5 295.9 L362.9 293.3 L359.2 290.6 L355.5 288.0 L351.7 285.4 L347.9 282.8 L344.0 280.2 L340.1 277.7 L336.1 275.1 L332.1 272.6 L328.1 270.2 L324.1 267.7 L320.0 265.4 L315.9 263.0 L311.8 260.7 L307.6 258.5 L303.5 256.3 L299.3 254.1 L295.1 252.0 L291.0 250.0 L286.8 247.9 L282.7 246.0 L278.5 244.1 L274.4 242.2 L270.3 240.4 L266.2 238.6 L262.2 236.9 L258.1 235.3 L254.2 233.7 L250.2 232.2 L246.3 230.7 L242.5 229.3 L238.6 228.0 L234.9 226.7 L231.2 225.5 L227.5 224.3 L223.9 223.3 L220.4 222.2 L217.0 221.3 L213.6 220.4 L210.3 219.6 L207.1 218.9 L203.9 218.2 L200.9 217.6 L197.9 217.1 L195.1 216.6 L192.3 216.2 L189.6 215.9 L187.0 215.6 L184.6 215.4 L182.2 215.3 L180.0 215.2 L177.9 215.3 L175.8 215.3 L174.0 215.5 L172.2 215.7 L170.6 215.9 L169.1 216.2 L167.8 216.6 L166.6 216.9 L165.6 217.4 L164.7 217.8 L163.9 218.2 L163.3 218.6 L162.8 219.1 L162.4 219.5 L162.1 219.9 L161.9 220.3 L161.7 220.7 L161.5 221.1 L161.3 221.7 L161.2 222.3 L161.1 223.1 L161.1 223.9 L161.2 224.9 L161.4 226.0 L161.6 227.2 L162.0 228.6 L162.5 230.0 L163.1 231.5 L163.8 233.1 L164.6 234.8 L165.5 236.6 L166.6 238.4 L167.8 240.3 L169.0 242.3 L170.4 244.4 L171.9 246.5 L173.6 248.6 L175.3 250.8 L177.1 253.1 L179.1 255.4 L181.1 257.7 L183.3 260.1 L185.5 262.5 L187.9 265.0 L190.3 267.5 L192.9 270.0 L195.5 272.5 L198.2 275.1 L201.1 277.7 L204.0 280.3 L206.9 282.9 L210.0 285.5 L213.2 288.1 L216.4 290.8 L219.7 293.5 L223.0 296.1 L226.5 298.8 L230.0 301.4 L233.5 304.1 L237.1 306.7 L240.8 309.4 L244.5 312.0 L248.3 314.6 L252.1 317.2 L256.0 319.8 L259.9 322.3 L263.9 324.9 L267.9 327.4 L271.9 329.8 L275.9 332.3 L280.0 334.6 L284.1 337.0 L288.2 339.3 L292.4 341.5 L296.5 343.7 L300.7 345.9 L304.9 348.0 L309.0 350.0 L313.2 352.1 L317.3 354.0 L321.5 355.9 L325.6 357.8 L329.7 359.6 L333.8 361.4 L337.8 363.1 L341.9 364.7 L345.8 366.3 L349.8 367.8 L353.7 369.3 L357.5 370.7 L361.4 372.0 L365.1 373.3 L368.8 374.5 L372.5 375.7 L376.1 376.7 L379.6 377.8 L383.0 378.7 L386.4 379.6 L389.7 380.4 L392.9 381.1 L396.1 381.8 L399.1 382.4 L402.1 382.9 L404.9 383.4 L407.7 383.8 L410.4 384.1 L413.0 384.4 L415.4 384.6 L417.8 384.7 L420.0 384.8 L422.1 384.7 L424.2 384.7 L426.0 384.5 L427.8 384.3 L429.4 384.1 L430.9 383.8 L432.2 383.4 L433.4 383.1 L434.4 382.6 L435.3 382.2 L436.1 381.8 L436.7 381.4 L437.2 380.9 L437.6 380.5 L437.9 380.1 L438.1 379.8 Z"></path>
    </g>
  </g>
</svg>
